<?xml version="1.0" encoding="UTF-8" standalone="no"?>
<svg
   xmlns:dc="http://purl.org/dc/elements/1.1/"
   xmlns:cc="http://creativecommons.org/ns#"
   xmlns:rdf="http://www.w3.org/1999/02/22-rdf-syntax-ns#"
   xmlns:svg="http://www.w3.org/2000/svg"
   xmlns="http://www.w3.org/2000/svg"
   id="svg8"
   version="1.1"
   viewBox="0 0 66.145832 66.145835"
   height="250"
   width="250">
  <defs
     id="defs2" />
  <metadata
     id="metadata5">
    <rdf:RDF>
      <cc:Work
         rdf:about="">
        <dc:format>image/svg+xml</dc:format>
        <dc:type
           rdf:resource="http://purl.org/dc/dcmitype/StillImage" />
        <dc:title></dc:title>
      </cc:Work>
    </rdf:RDF>
  </metadata>
  <g
     transform="translate(0,-230.85415)"
     id="layer1">
    <g
       id="g4741">
      <rect
         style="opacity:0.4;fill-opacity:1;stroke:none;stroke-width:1.5776701;stroke-miterlimit:4;stroke-dasharray:none"
         id="rect4522"
         width="52.916668"
         height="6.6145835"
         x="6.6145835"
         y="242.42967"
         rx="0.79374999"
         ry="0.79374999" />
      <rect
         style="opacity:0.4;fill-opacity:1;stroke:none;stroke-width:1.49670923;stroke-miterlimit:4;stroke-dasharray:none"
         id="rect4522-9"
         width="47.625"
         height="6.6145835"
         x="9.260417"
         y="260.61978"
         rx="0.79374999"
         ry="0.79374999" />
      <rect
         style="opacity:0.4;fill-opacity:1;stroke:none;stroke-width:1.5776701;stroke-miterlimit:4;stroke-dasharray:none"
         id="rect4522-9-8"
         width="52.916668"
         height="6.6145835"
         x="6.6145835"
         y="278.80988"
         rx="0.79374999"
         ry="0.79374999" />
    </g>
    <path
       id="rect4522-4"
       d="m -47.823184,271.09785 17.586339,-17.58633 c 0.310941,-0.31095 0.811596,-0.31094 1.122532,0 l 3.554689,3.55469 c 0.310936,0.31093 0.31094,0.81159 -1e-6,1.12253 l -17.586338,17.58633 c -0.310942,0.31094 -0.811596,0.31093 -1.122532,0 l -3.554689,-3.55469 c -0.310936,-0.31094 -0.310941,-0.81159 0,-1.12253 z m -1.122533,4.67721 -17.58633,-17.58634 c -0.310941,-0.31094 -0.310936,-0.81159 0,-1.12253 l 3.55469,-3.55469 c 0.310936,-0.31093 0.811591,-0.31094 1.122532,0 l 17.586331,17.58634 c 0.310942,0.31094 0.310936,0.8116 0,1.12253 l -3.554691,3.55469 c -0.310936,0.31094 -0.81159,0.31094 -1.122532,0 z m 4.677215,1.12253 -17.586339,17.58633 c -0.310941,0.31095 -0.811596,0.31094 -1.122532,0 l -3.554689,-3.55469 c -0.310936,-0.31093 -0.31094,-0.81159 10e-7,-1.12253 l 17.586338,-17.58633 c 0.310942,-0.31094 0.811596,-0.31093 1.122532,0 l 3.554689,3.55469 c 0.310936,0.31094 0.310941,0.81159 0,1.12253 z m 1.122533,-4.67721 17.58633,17.58634 c 0.310941,0.31094 0.310936,0.81159 0,1.12253 l -3.55469,3.55469 c -0.310936,0.31093 -0.811591,0.31094 -1.122532,0 L -47.823192,276.8976 c -0.310942,-0.31094 -0.310936,-0.8116 0,-1.12253 l 3.554691,-3.55469 c 0.310936,-0.31094 0.81159,-0.31094 1.122532,0 z"
       style="opacity:0.4;fill-opacity:1;stroke:none;stroke-width:1.11558115;stroke-miterlimit:4;stroke-dasharray:none" />
    <path
       id="rect4522-2"
       d="m -41.46853,220.24195 h 24.870832 c 0.43974,0 0.79375,0.35402 0.79375,0.79375 v 5.02709 c 0,0.43974 -0.35401,0.79375 -0.79375,0.79375 H -41.46853 c -0.439738,0 -0.79375,-0.35401 -0.79375,-0.79375 v -5.02709 c 0,-0.43973 0.354012,-0.79375 0.79375,-0.79375 z m -2.571091,0.40742 17.586334,-17.58634 c 0.310943,-0.31094 0.811596,-0.31093 1.122532,0 l 3.554689,3.55469 c 0.310943,0.31095 0.310943,0.81159 0,1.12253 L -39.3624,225.32659 c -0.310941,0.31094 -0.811589,0.31094 -1.122532,0 l -3.554689,-3.55469 c -0.310936,-0.31094 -0.310942,-0.81159 0,-1.12253 z m -1.529949,2.10612 v -24.87083 c 0,-0.43974 0.35402,-0.79375 0.79375,-0.79375 h 5.02709 c 0.43974,0 0.79375,0.35401 0.79375,0.79375 v 24.87083 c 0,0.43974 -0.35401,0.79375 -0.79375,0.79375 h -5.02709 c -0.43973,0 -0.79375,-0.35401 -0.79375,-0.79375 z m 0.407417,2.57109 -17.586334,-17.58633 c -0.310943,-0.31095 -0.310936,-0.8116 0,-1.12253 l 3.554689,-3.55469 c 0.310943,-0.31095 0.811589,-0.31095 1.122532,0 l 17.586334,17.58633 c 0.310942,0.31094 0.310943,0.81159 0,1.12253 l -3.554689,3.55469 c -0.310936,0.31094 -0.81159,0.31094 -1.122532,0 z m 2.106123,1.52995 h -24.870832 c -0.43974,0 -0.79375,-0.35402 -0.79375,-0.79375 v -5.02709 c 0,-0.43974 0.35401,-0.79375 0.79375,-0.79375 h 24.870832 c 0.439738,0 0.79375,0.35401 0.79375,0.79375 v 5.02709 c 0,0.43973 -0.354012,0.79375 -0.79375,0.79375 z m 2.571091,-0.40742 -17.586334,17.58634 c -0.310943,0.31094 -0.811596,0.31093 -1.122532,0 l -3.554689,-3.55469 c -0.310943,-0.31095 -0.310943,-0.81159 0,-1.12253 l 17.586334,-17.58634 c 0.310941,-0.31094 0.811589,-0.31094 1.122532,0 l 3.554689,3.55469 c 0.310936,0.31094 0.310942,0.81159 0,1.12253 z m 1.529949,-2.10612 v 24.87083 c 0,0.43974 -0.35402,0.79375 -0.79375,0.79375 h -5.02709 c -0.43974,0 -0.79375,-0.35401 -0.79375,-0.79375 v -24.87083 c 0,-0.43974 0.35401,-0.79375 0.79375,-0.79375 h 5.02709 c 0.43973,0 0.79375,0.35401 0.79375,0.79375 z m -0.407417,-2.57109 17.586334,17.58633 c 0.310943,0.31095 0.310936,0.8116 0,1.12253 l -3.554689,3.55469 c -0.310943,0.31095 -0.811589,0.31095 -1.122532,0 l -17.586334,-17.58633 c -0.310942,-0.31094 -0.310943,-0.81159 0,-1.12253 l 3.554689,-3.55469 c 0.310936,-0.31094 0.81159,-0.31094 1.122532,0 z"
       style="opacity:0.4;fill-opacity:1;stroke:none;stroke-width:1.11558115;stroke-miterlimit:4;stroke-dasharray:none" />
    <path
       id="rect4522-1"
       d="m -59.653357,322.16927 h 24.87083 c 0.43974,0 0.79375,0.35402 0.79375,0.79375 v 5.02709 c 0,0.43973 -0.35401,0.79375 -0.79375,0.79375 h -24.87083 c -0.43974,0 -0.79375,-0.35402 -0.79375,-0.79375 v -5.02709 c 0,-0.43973 0.35401,-0.79375 0.79375,-0.79375 z m -1.32607,-0.052 22.977651,-9.51766 c 0.406267,-0.16828 0.868807,0.0233 1.037085,0.42958 l 1.923784,4.64442 c 0.168277,0.40626 -0.02331,0.86881 -0.429575,1.03709 l -22.977651,9.51765 c -0.406266,0.16828 -0.868806,-0.0233 -1.037084,-0.42957 l -1.923784,-4.64443 c -0.168277,-0.40625 0.02331,-0.8688 0.429574,-1.03708 z m -1.245028,0.45942 17.586332,-17.58633 c 0.310943,-0.31095 0.811596,-0.31094 1.122532,0 l 3.55469,3.55469 c 0.310936,0.31093 0.310943,0.81159 0,1.12253 l -17.586333,17.58633 c -0.310943,0.31094 -0.811596,0.31094 -1.122532,0 l -3.554689,-3.55469 c -0.310936,-0.31093 -0.310943,-0.81159 0,-1.12253 z m -0.974444,0.9009 9.517655,-22.97765 c 0.168281,-0.40627 0.630827,-0.59785 1.037084,-0.42957 l 4.644426,1.92378 c 0.406257,0.16828 0.597855,0.63082 0.429574,1.03708 l -9.517654,22.97766 c -0.168282,0.40626 -0.630827,0.59785 -1.037085,0.42957 l -4.644425,-1.92378 c -0.406258,-0.16828 -0.597856,-0.63082 -0.429575,-1.03709 z m -0.555508,1.20523 v -24.87083 c 0,-0.43974 0.35402,-0.79375 0.79375,-0.79375 h 5.02709 c 0.43973,0 0.79375,0.35401 0.79375,0.79375 v 24.87083 c 0,0.43974 -0.35402,0.79375 -0.79375,0.79375 h -5.02709 c -0.43973,0 -0.79375,-0.35401 -0.79375,-0.79375 z m -0.052,1.32607 -9.517654,-22.97765 c -0.168282,-0.40627 0.02332,-0.86881 0.429574,-1.03709 l 4.644426,-1.92378 c 0.406257,-0.16828 0.868803,0.0233 1.037084,0.42957 l 9.517655,22.97766 c 0.168281,0.40626 -0.02332,0.8688 -0.429575,1.03708 l -4.644425,1.92378 c -0.406258,0.16828 -0.868804,-0.0233 -1.037085,-0.42957 z m 0.459422,1.24503 -17.586333,-17.58633 c -0.310943,-0.31095 -0.310936,-0.8116 0,-1.12254 l 3.55469,-3.55469 c 0.310936,-0.31093 0.811588,-0.31094 1.122532,0 l 17.586332,17.58634 c 0.310943,0.31094 0.310936,0.81159 0,1.12253 l -3.554689,3.55469 c -0.310936,0.31093 -0.811589,0.31094 -1.122532,0 z m 0.900902,0.97444 -22.977651,-9.51765 c -0.406267,-0.16828 -0.597852,-0.63083 -0.429574,-1.03709 l 1.923784,-4.64442 c 0.168277,-0.40626 0.630817,-0.59786 1.037084,-0.42958 l 22.977651,9.51766 c 0.406266,0.16828 0.597852,0.63082 0.429574,1.03708 l -1.923784,4.64443 c -0.168277,0.40625 -0.630818,0.59785 -1.037084,0.42957 z m 1.205228,0.55551 h -24.87083 c -0.43974,0 -0.79375,-0.35402 -0.79375,-0.79375 v -5.02709 c 0,-0.43973 0.35401,-0.79375 0.79375,-0.79375 h 24.87083 c 0.43974,0 0.79375,0.35402 0.79375,0.79375 v 5.02709 c 0,0.43973 -0.35401,0.79375 -0.79375,0.79375 z m 1.32607,0.052 -22.977651,9.51766 c -0.406267,0.16828 -0.868807,-0.0233 -1.037085,-0.42958 l -1.923784,-4.64442 c -0.168277,-0.40626 0.02331,-0.86881 0.429575,-1.03709 l 22.977651,-9.51765 c 0.406266,-0.16828 0.868806,0.0233 1.037084,0.42957 l 1.923784,4.64443 c 0.168277,0.40625 -0.02331,0.8688 -0.429574,1.03708 z m 1.245028,-0.45942 -17.586332,17.58633 c -0.310943,0.31095 -0.811596,0.31094 -1.122532,0 l -3.55469,-3.55469 c -0.310936,-0.31093 -0.310943,-0.81159 0,-1.12253 l 17.586333,-17.58633 c 0.310943,-0.31094 0.811596,-0.31094 1.122532,0 l 3.554689,3.55469 c 0.310936,0.31093 0.310943,0.81159 0,1.12253 z m 0.974444,-0.9009 -9.517655,22.97765 c -0.168281,0.40627 -0.630827,0.59785 -1.037084,0.42957 l -4.644426,-1.92378 c -0.406257,-0.16828 -0.597855,-0.63082 -0.429574,-1.03708 l 9.517654,-22.97766 c 0.168282,-0.40626 0.630827,-0.59785 1.037085,-0.42957 l 4.644425,1.92378 c 0.406258,0.16828 0.597856,0.63082 0.429575,1.03709 z m 0.555508,-1.20523 v 24.87083 c 0,0.43974 -0.35402,0.79375 -0.79375,0.79375 h -5.02709 c -0.43973,0 -0.79375,-0.35401 -0.79375,-0.79375 v -24.87083 c 0,-0.43974 0.35402,-0.79375 0.79375,-0.79375 h 5.02709 c 0.43973,0 0.79375,0.35401 0.79375,0.79375 z m 0.052,-1.32607 9.517654,22.97765 c 0.168282,0.40627 -0.02332,0.86881 -0.429574,1.03709 l -4.644426,1.92378 c -0.406257,0.16828 -0.868803,-0.0233 -1.037084,-0.42957 l -9.517655,-22.97766 c -0.168281,-0.40626 0.02332,-0.8688 0.429575,-1.03708 l 4.644425,-1.92378 c 0.406258,-0.16828 0.868804,0.0233 1.037085,0.42957 z m -0.459422,-1.24503 17.586333,17.58633 c 0.310943,0.31095 0.310936,0.8116 0,1.12254 l -3.55469,3.55469 c -0.310936,0.31093 -0.811588,0.31094 -1.122532,0 l -17.586332,-17.58634 c -0.310943,-0.31094 -0.310936,-0.81159 0,-1.12253 l 3.554689,-3.55469 c 0.310936,-0.31093 0.811589,-0.31094 1.122532,0 z m -0.900902,-0.97444 22.977651,9.51765 c 0.406267,0.16828 0.597852,0.63083 0.429574,1.03709 l -1.923784,4.64442 c -0.168277,0.40626 -0.630817,0.59786 -1.037084,0.42958 l -22.977651,-9.51766 c -0.406266,-0.16828 -0.597852,-0.63082 -0.429574,-1.03708 l 1.923784,-4.64443 c 0.168277,-0.40625 0.630818,-0.59785 1.037084,-0.42957 z"
       style="opacity:0.4;fill-opacity:1;stroke:none;stroke-width:1.11558115;stroke-miterlimit:4;stroke-dasharray:none" />
    <path
       id="rect4522-5"
       d="m 97.776668,264.29988 21.328112,-21.3281 c 0.31094,-0.31094 0.8116,-0.31094 1.12253,0 l 3.55469,3.55469 c 0.31094,0.31094 0.31094,0.8116 0,1.12253 l -21.32811,21.32811 c -0.31095,0.31094 -0.8116,0.31093 -1.12254,0 l -3.554686,-3.55469 c -0.310936,-0.31094 -0.310943,-0.81159 4e-6,-1.12254 z m -1.12254,4.67722 -21.328104,-21.32812 c -0.310936,-0.31093 -0.310936,-0.81159 10e-7,-1.12253 l 3.55469,-3.55469 c 0.310936,-0.31093 0.811596,-0.31093 1.122532,0 l 21.328103,21.32812 c 0.31095,0.31094 0.31094,0.8116 0,1.12253 l -3.554687,3.55469 c -0.310936,0.31094 -0.811589,0.31094 -1.122535,0 z m 4.677212,1.12254 -21.328111,21.3281 c -0.310936,0.31094 -0.811596,0.31094 -1.122532,0 l -3.554689,-3.55469 c -0.310936,-0.31094 -0.310936,-0.8116 10e-7,-1.12253 l 21.328113,-21.32811 c 0.310946,-0.31094 0.811599,-0.31093 1.122535,0 l 3.554693,3.55469 c 0.31093,0.31094 0.31094,0.81159 -1e-5,1.12254 z m 1.12254,-4.67722 21.32811,21.32812 c 0.31093,0.31093 0.31093,0.81159 0,1.12253 l -3.55469,3.55469 c -0.31094,0.31093 -0.8116,0.31093 -1.12254,0 l -21.3281,-21.32812 c -0.310947,-0.31094 -0.31094,-0.8116 -4e-6,-1.12253 l 3.554694,-3.55469 c 0.31093,-0.31094 0.81159,-0.31094 1.12253,0 z"
       style="opacity:0.4;fill-opacity:1;stroke:none;stroke-width:1.22205794;stroke-miterlimit:4;stroke-dasharray:none" />
    <path
       id="rect4522-97"
       d="m 99.922035,205.5692 h 30.162515 c 0.43974,0 0.79375,0.35401 0.79375,0.79375 v 5.02708 c 0,0.43974 -0.35401,0.79375 -0.79375,0.79375 H 99.922035 c -0.43974,0 -0.79375,-0.35401 -0.79375,-0.79375 v -5.02708 c 0,-0.43974 0.35401,-0.79375 0.79375,-0.79375 z m -2.571091,0.40742 21.328116,-21.32812 c 0.31095,-0.31095 0.81159,-0.31095 1.12253,0 l 3.55469,3.55468 c 0.31094,0.31094 0.31094,0.81159 0,1.12253 l -21.32812,21.32812 c -0.31094,0.31094 -0.81159,0.31094 -1.12253,0 l -3.554686,-3.55468 c -0.310943,-0.31094 -0.310943,-0.81159 0,-1.12253 z m -1.529949,2.10612 v -30.16251 c 0,-0.43974 0.35401,-0.79375 0.79375,-0.79375 h 5.027085 c 0.43973,0 0.79375,0.35401 0.79375,0.79375 v 30.16251 c 0,0.43974 -0.35402,0.79375 -0.79375,0.79375 h -5.027085 c -0.43974,0 -0.79375,-0.35401 -0.79375,-0.79375 z m 0.407417,2.57109 -21.328119,-21.32812 c -0.310943,-0.31094 -0.310943,-0.81159 0,-1.12253 l 3.554682,-3.55468 c 0.310943,-0.31095 0.811589,-0.31095 1.122532,0 l 21.328123,21.32812 c 0.31094,0.31094 0.31094,0.81159 0,1.12253 l -3.554686,3.55468 c -0.310943,0.31094 -0.811589,0.31094 -1.122532,0 z m 2.106123,1.52995 -30.162515,0 c -0.43974,0 -0.79375,-0.35401 -0.79375,-0.79375 v -5.02708 c 0,-0.43974 0.35401,-0.79375 0.79375,-0.79375 l 30.162515,0 c 0.43974,0 0.79375,0.35401 0.79375,0.79375 v 5.02708 c 0,0.43974 -0.35401,0.79375 -0.79375,0.79375 z m 2.571095,-0.40742 -21.328123,21.32812 c -0.310943,0.31095 -0.811589,0.31095 -1.122532,0 l -3.554682,-3.55468 c -0.310943,-0.31094 -0.310943,-0.81159 0,-1.12253 l 21.328119,-21.32812 c 0.310943,-0.31094 0.811589,-0.31094 1.122532,0 l 3.554686,3.55468 c 0.31094,0.31094 0.31094,0.81159 0,1.12253 z m 1.52994,-2.10612 v 30.16251 c 0,0.43974 -0.35401,0.79375 -0.79375,0.79375 h -5.027075 c -0.43974,0 -0.79375,-0.35401 -0.79375,-0.79375 v -30.16251 c 0,-0.43974 0.35401,-0.79375 0.79375,-0.79375 h 5.027075 c 0.43974,0 0.79375,0.35401 0.79375,0.79375 z m -0.40741,-2.57109 21.32812,21.32812 c 0.31094,0.31094 0.31094,0.81159 0,1.12253 l -3.55469,3.55468 c -0.31094,0.31095 -0.81158,0.31095 -1.12253,0 L 97.350944,211.77636 c -0.310943,-0.31094 -0.310943,-0.81159 0,-1.12253 l 3.554686,-3.55468 c 0.31094,-0.31094 0.81159,-0.31094 1.12253,0 z"
       style="opacity:0.4;fill-opacity:1;stroke:none;stroke-width:1.22205794;stroke-miterlimit:4;stroke-dasharray:none" />
    <path
       id="rect4522-58"
       d="m 101.09276,318.81 h 30.1625 c 0.43974,0 0.79375,0.35401 0.79375,0.79375 v 5.02709 c 0,0.43973 -0.35401,0.79375 -0.79375,0.79375 h -30.1625 c -0.43974,0 -0.79375,-0.35402 -0.79375,-0.79375 v -5.02709 c 0,-0.43974 0.35401,-0.79375 0.79375,-0.79375 z m -4.10105,2.51355 v -30.1625 c 0,-0.43974 0.35401,-0.79375 0.79375,-0.79375 h 5.02709 c 0.43973,0 0.79375,0.35401 0.79375,0.79375 v 30.1625 c 0,0.43974 -0.35402,0.79375 -0.79375,0.79375 h -5.02709 c -0.43974,0 -0.79375,-0.35401 -0.79375,-0.79375 z m 2.51355,4.10105 h -30.1625 c -0.43974,0 -0.79375,-0.35401 -0.79375,-0.79375 v -5.02709 c 0,-0.43973 0.35401,-0.79375 0.79375,-0.79375 h 30.1625 c 0.43974,0 0.79375,0.35402 0.79375,0.79375 v 5.02709 c 0,0.43974 -0.35401,0.79375 -0.79375,0.79375 z m 4.10105,-2.51355 v 30.1625 c 0,0.43974 -0.35401,0.79375 -0.79375,0.79375 h -5.02709 c -0.43973,0 -0.79375,-0.35401 -0.79375,-0.79375 v -30.1625 c 0,-0.43974 0.35402,-0.79375 0.79375,-0.79375 h 5.02709 c 0.43974,0 0.79375,0.35401 0.79375,0.79375 z"
       style="opacity:0.4;fill-opacity:1;stroke:none;stroke-width:1.22205794;stroke-miterlimit:4;stroke-dasharray:none" />
  </g>
</svg>
